<svg width="44" height="44" viewBox="0 0 44 44" fill="none" xmlns="http://www.w3.org/2000/svg">
<rect width="44" height="44" rx="22" fill="#7EA8F8"/>
<path d="M18.666 24.2917C19.011 24.2917 19.291 24.5717 19.291 24.9167V26.1667C19.291 26.5117 19.011 26.7917 18.666 26.7917C18.321 26.7917 18.041 26.5117 18.041 26.1667V24.9167C18.041 24.5717 18.321 24.2917 18.666 24.2917Z" fill="white"/>
<path d="M21.9993 23.0417C22.3443 23.0417 22.6243 23.3217 22.6243 23.6667V26.1667C22.6243 26.5117 22.3443 26.7917 21.9993 26.7917C21.6543 26.7917 21.3743 26.5117 21.3743 26.1667V23.6667C21.3743 23.3217 21.6543 23.0417 21.9993 23.0417Z" fill="white"/>
<path d="M25.3327 21.375C25.6777 21.375 25.9577 21.655 25.9577 22V26.1667C25.9577 26.5117 25.6777 26.7917 25.3327 26.7917C24.9877 26.7917 24.7077 26.5117 24.7077 26.1667V22C24.7077 21.655 24.9877 21.375 25.3327 21.375Z" fill="white"/>
<path d="M25.3327 17.2084C25.4143 17.2084 25.4953 17.2247 25.5719 17.2564C25.7244 17.3197 25.8463 17.4416 25.9097 17.5949C25.9413 17.6716 25.9577 17.7525 25.9577 17.8342V19.6677C25.9576 19.9912 25.7113 20.2576 25.3962 20.2894C25.3753 20.2915 25.3541 20.2927 25.3327 20.2927C25.3113 20.2927 25.2901 20.2915 25.2692 20.2894C24.954 20.2576 24.7077 19.9912 24.7077 19.6677V19.343L23.2087 20.842C23.0019 21.049 22.7277 21.1653 22.4453 21.1911C22.3647 21.1985 22.2834 21.1985 22.2028 21.1911C21.9205 21.1652 21.6466 21.0486 21.4403 20.842L20.3742 19.7759L19.1079 21.0422C19.0167 21.134 18.9038 21.1918 18.7856 21.2147C18.7462 21.2223 18.7061 21.2261 18.666 21.2261C18.626 21.2261 18.5858 21.2224 18.5464 21.2147C18.4282 21.1916 18.3153 21.1334 18.2241 21.0422C17.9802 20.798 17.9801 20.4025 18.2241 20.1584L19.4912 18.8921C19.7045 18.6788 19.9762 18.5589 20.2554 18.5324C20.3352 18.5248 20.4156 18.5247 20.4954 18.5324C20.7745 18.5592 21.0464 18.6793 21.2596 18.8921L22.3249 19.9574L23.8247 18.4584H23.4992C23.1543 18.4583 22.8742 18.1783 22.8742 17.8334C22.8742 17.4884 23.1543 17.2084 23.4992 17.2084H25.3327Z" fill="white"/>
<path fill-rule="evenodd" clip-rule="evenodd" d="M21.9993 13.0417C26.9393 13.0417 30.9577 17.06 30.9577 22C30.9577 26.94 26.9393 30.9584 21.9993 30.9584C17.0593 30.9584 13.041 26.94 13.041 22C13.041 17.06 17.0593 13.0417 21.9993 13.0417ZM21.9993 14.2917C17.7485 14.2917 14.291 17.7492 14.291 22C14.291 26.2509 17.7485 29.7084 21.9993 29.7084C26.2502 29.7084 29.7077 26.2509 29.7077 22C29.7077 17.7492 26.2502 14.2917 21.9993 14.2917Z" fill="white"/>
</svg>
