<svg width="44" height="44" viewBox="0 0 44 44" fill="none" xmlns="http://www.w3.org/2000/svg">
<rect width="44" height="44" rx="22" fill="#FF9800"/>
<path d="M26.6004 26.375C27.1752 26.3752 27.6421 26.8418 27.6421 27.4167C27.6421 27.9915 27.1752 28.4581 26.6004 28.4583C26.0263 28.4583 25.5539 27.9917 25.5539 27.4167C25.5539 26.8417 26.0166 26.3751 26.5915 26.375H26.6004Z" fill="white"/>
<path fill-rule="evenodd" clip-rule="evenodd" d="M26.5833 23.875C28.81 23.875 30.1187 25.5083 30.6995 26.4808C31.0452 27.0574 31.0452 27.7751 30.6995 28.3525C30.1187 29.3259 28.81 30.9583 26.5833 30.9583C24.3568 30.9583 23.0488 29.3251 22.4679 28.3525C22.1221 27.775 22.1221 27.0575 22.4679 26.48C23.0488 25.5075 24.3568 23.875 26.5833 23.875ZM26.5833 25.125C24.9733 25.125 23.9855 26.3762 23.5397 27.1221C23.4308 27.3045 23.4306 27.5297 23.5397 27.7113C23.9856 28.4579 24.9735 29.7083 26.5833 29.7083C28.1932 29.7083 29.1811 28.4579 29.627 27.7113C29.736 27.5297 29.7359 27.3045 29.627 27.1229C29.1811 26.3762 28.1933 25.125 26.5833 25.125Z" fill="white"/>
<path d="M22 22.2083C22.3508 22.2083 22.656 22.2301 22.9326 22.2751C23.2734 22.3293 23.506 22.6504 23.4502 22.9912C23.3959 23.3318 23.0656 23.5638 22.734 23.5088C22.5241 23.4746 22.2842 23.4583 22 23.4583H18.6667C15.3808 23.4583 15.125 26.1829 15.125 27.0171C15.1251 28.3193 15.686 28.875 17 28.875H20.3333C20.6783 28.875 20.9583 29.155 20.9583 29.5C20.9583 29.845 20.6783 30.125 20.3333 30.125H17C14.9851 30.125 13.8752 29.021 13.875 27.0171C13.875 24.7988 15.13 22.2083 18.6667 22.2083H22Z" fill="white"/>
<path fill-rule="evenodd" clip-rule="evenodd" d="M20.3407 13.875C22.294 13.875 23.8823 15.4642 23.8823 17.4167C23.8823 19.3692 22.294 20.9583 20.3407 20.9583C18.3874 20.9582 16.799 19.3691 16.799 17.4167C16.799 15.4642 18.3874 13.8751 20.3407 13.875ZM20.3407 15.125C19.0766 15.1251 18.049 16.1526 18.049 17.4167C18.049 18.6808 19.0766 19.7082 20.3407 19.7083C21.6048 19.7083 22.6323 18.6808 22.6323 17.4167C22.6323 16.1525 21.6048 15.125 20.3407 15.125Z" fill="white"/>
</svg>
