<svg width="44" height="44" viewBox="0 0 44 44" fill="none" xmlns="http://www.w3.org/2000/svg">
<rect width="44" height="44" rx="22" fill="white"/>
<path d="M21.9993 17.2092C22.3443 17.2092 22.6243 17.4892 22.6243 17.8342V21.742L24.9412 24.0581C25.1854 24.3023 25.1854 24.6986 24.9412 24.9427C24.8196 25.0644 24.6593 25.1258 24.4993 25.1258C24.3393 25.1258 24.1791 25.0652 24.0575 24.9427L21.5575 22.4427C21.44 22.3252 21.3743 22.1658 21.3743 22.0008V17.8342C21.3743 17.4892 21.6543 17.2092 21.9993 17.2092Z" fill="#757575"/>
<path fill-rule="evenodd" clip-rule="evenodd" d="M21.9993 13.0417C26.9393 13.0417 30.9577 17.06 30.9577 22C30.9577 26.94 26.9393 30.9584 21.9993 30.9584C17.0593 30.9584 13.041 26.94 13.041 22C13.041 17.06 17.0593 13.0417 21.9993 13.0417ZM21.9993 14.2917C17.7485 14.2917 14.291 17.7492 14.291 22C14.291 26.2509 17.7485 29.7084 21.9993 29.7084C26.2502 29.7084 29.7077 26.2509 29.7077 22C29.7077 17.7492 26.2502 14.2917 21.9993 14.2917Z" fill="#757575"/>
</svg>
