<svg width="25" height="20" viewBox="0 0 25 20" fill="none" xmlns="http://www.w3.org/2000/svg">
<path d="M9.94043 14.5283H9.08789L6.00293 17.2441C5.80957 17.4141 5.64258 17.543 5.50195 17.6309C5.36133 17.7188 5.20605 17.7627 5.03613 17.7627C4.80762 17.7627 4.62598 17.6865 4.49121 17.5342C4.3623 17.3818 4.29785 17.1738 4.29785 16.9102V14.5283H3.72656C2.93555 14.5283 2.26172 14.3818 1.70508 14.0889C1.14844 13.7959 0.723633 13.3711 0.430664 12.8145C0.143555 12.2578 0 11.5898 0 10.8105V3.72656C0 2.94727 0.143555 2.2793 0.430664 1.72266C0.723633 1.16602 1.14844 0.741211 1.70508 0.448242C2.26172 0.149414 2.93555 0 3.72656 0H15.3457C16.1367 0 16.8105 0.149414 17.3672 0.448242C17.9238 0.741211 18.3457 1.16602 18.6328 1.72266C18.9258 2.2793 19.0723 2.94727 19.0723 3.72656V5.25586H17.9912V3.74414C17.9912 2.90039 17.7627 2.24707 17.3057 1.78418C16.8545 1.31543 16.1982 1.08105 15.3369 1.08105H3.73535C2.86816 1.08105 2.20898 1.31543 1.75781 1.78418C1.30664 2.24707 1.08105 2.90039 1.08105 3.74414V10.793C1.08105 11.6426 1.30664 12.2988 1.75781 12.7617C2.20898 13.2188 2.86816 13.4473 3.73535 13.4473H4.79883C4.98047 13.4473 5.10938 13.4883 5.18555 13.5703C5.26758 13.6465 5.30859 13.7783 5.30859 13.9658V16.541L8.2002 13.8076C8.34668 13.6611 8.48145 13.5645 8.60449 13.5176C8.72754 13.4707 8.88867 13.4473 9.08789 13.4473H9.61523L9.94043 14.5283ZM12.252 16.3916C11.5195 16.3916 10.9043 16.2627 10.4062 16.0049C9.9082 15.7529 9.53027 15.3809 9.27246 14.8887C9.02051 14.3906 8.89453 13.7783 8.89453 13.0518V7.84863C8.89453 7.12793 9.02051 6.51855 9.27246 6.02051C9.53027 5.52246 9.9082 5.14453 10.4062 4.88672C10.9043 4.62891 11.5195 4.5 12.252 4.5H20.7686C21.501 4.5 22.1133 4.62891 22.6055 4.88672C23.1035 5.14453 23.4814 5.52246 23.7393 6.02051C23.9971 6.51855 24.126 7.12793 24.126 7.84863V13.0518C24.126 13.7725 23.9971 14.3818 23.7393 14.8799C23.4814 15.3721 23.1035 15.7471 22.6055 16.0049C22.1133 16.2627 21.501 16.3916 20.7686 16.3916H20.3906V18.501C20.3906 18.7471 20.3262 18.9463 20.1973 19.0986C20.0742 19.251 19.8984 19.3271 19.6699 19.3271C19.5117 19.3271 19.3623 19.2832 19.2217 19.1953C19.0869 19.1074 18.9258 18.9814 18.7383 18.8174L15.8994 16.3916H12.252ZM12.2959 15.3105H15.8555C16.0078 15.3105 16.1396 15.334 16.251 15.3809C16.3623 15.4219 16.4795 15.501 16.6025 15.6182L19.3799 18.0791V15.8555C19.3799 15.668 19.4297 15.5303 19.5293 15.4424C19.6289 15.3545 19.752 15.3105 19.8984 15.3105H20.7246C21.5215 15.3105 22.1045 15.1201 22.4736 14.7393C22.8486 14.3525 23.0361 13.7725 23.0361 12.999V7.89258C23.0361 7.125 22.8486 6.54785 22.4736 6.16113C22.1045 5.77441 21.5215 5.58105 20.7246 5.58105H12.2959C11.499 5.58105 10.916 5.77441 10.5469 6.16113C10.1777 6.54785 9.99316 7.125 9.99316 7.89258L9.98438 13.0078C9.98438 13.7812 10.1689 14.3584 10.5381 14.7393C10.9131 15.1201 11.499 15.3105 12.2959 15.3105Z" fill="white"/>
</svg>
