<svg width="32" height="32" viewBox="0 0 32 32" fill="none" xmlns="http://www.w3.org/2000/svg">
<path d="M14 10.8333C14.276 10.8333 14.5 11.0573 14.5 11.3333C14.5 11.6093 14.276 11.8333 14 11.8333H12C10.9487 11.8333 10.5 12.282 10.5 13.3333V20C10.5 21.0513 10.9487 21.5 12 21.5H18.6667C19.718 21.5 20.1667 21.0513 20.1667 20V18C20.1667 17.724 20.3907 17.5 20.6667 17.5C20.9427 17.5 21.1667 17.724 21.1667 18V20C21.1667 21.612 20.2787 22.5 18.6667 22.5H12C10.388 22.5 9.5 21.612 9.5 20V13.3333C9.5 11.7213 10.388 10.8333 12 10.8333H14Z" fill="white"/>
<path fill-rule="evenodd" clip-rule="evenodd" d="M19.9648 9.5C20.3554 9.50004 20.7227 9.65185 20.9993 9.92839L22.0723 11.0013C22.3481 11.2779 22.5006 11.6459 22.5 12.0371C22.4993 12.4284 22.347 12.7963 22.0697 13.0723L16.0937 19.0208C15.9998 19.114 15.8734 19.1666 15.7415 19.1667H13.3333C13.0573 19.1667 12.8333 18.9427 12.8333 18.6667V16.2591C12.8334 16.1273 12.8853 16.0002 12.9792 15.9069L18.9277 9.93099C19.2031 9.65366 19.5716 9.50067 19.9629 9.5H19.9648ZM13.8333 16.4661V18.1673H15.5345L19.7448 13.9753L18.0247 12.2552L13.8333 16.4661ZM19.9642 10.5C19.8402 10.5 19.7241 10.5487 19.6367 10.6361L18.7305 11.5462L20.4538 13.2695L21.3639 12.3633C21.4513 12.2766 21.4993 12.1598 21.5 12.0358C21.5 11.9119 21.4518 11.7956 21.3646 11.7083L20.2923 10.6354C20.2268 10.5699 20.1443 10.5267 20.0553 10.5091L19.9642 10.5Z" fill="white"/>
</svg>
