<svg width="40" height="40" viewBox="0 0 40 40" fill="none" xmlns="http://www.w3.org/2000/svg">
<path d="M5 4C5 1.79086 6.79086 0 9 0H22L35 13V36C35 38.2091 33.2091 40 31 40H9C6.79086 40 5 38.2091 5 36V4Z" fill="#F8AF7E"/>
<path d="M25 13H35L22 0V10C22 11.6569 23.3431 13 25 13Z" fill="#E4E4E4"/>
<path d="M9.62695 28.1094V19.6836H10.6465V20.6914H10.7402C10.8691 20.457 11.0312 20.2578 11.2266 20.0938C11.4219 19.9258 11.6445 19.7969 11.8945 19.707C12.1445 19.6172 12.416 19.5723 12.709 19.5723C13.2441 19.5723 13.709 19.709 14.1035 19.9824C14.502 20.252 14.8105 20.6309 15.0293 21.1191C15.248 21.6074 15.3574 22.1797 15.3574 22.8359V22.8477C15.3574 23.5078 15.248 24.082 15.0293 24.5703C14.8105 25.0586 14.502 25.4375 14.1035 25.707C13.709 25.9766 13.2441 26.1113 12.709 26.1113C12.4199 26.1113 12.1465 26.0664 11.8887 25.9766C11.6348 25.8828 11.4082 25.7539 11.209 25.5898C11.0137 25.4258 10.8574 25.2305 10.7402 25.0039H10.6465V28.1094H9.62695ZM12.4746 25.209C12.8613 25.209 13.1914 25.1152 13.4648 24.9277C13.7383 24.7363 13.9473 24.4648 14.0918 24.1133C14.2402 23.7578 14.3145 23.3359 14.3145 22.8477V22.8359C14.3145 22.3438 14.2402 21.9219 14.0918 21.5703C13.9473 21.2188 13.7383 20.9492 13.4648 20.7617C13.1914 20.5703 12.8613 20.4746 12.4746 20.4746C12.0918 20.4746 11.7617 20.5703 11.4844 20.7617C11.207 20.9531 10.9941 21.2246 10.8457 21.5762C10.6973 21.9277 10.623 22.3477 10.623 22.8359V22.8477C10.623 23.332 10.6973 23.752 10.8457 24.1074C10.9941 24.459 11.207 24.7305 11.4844 24.9219C11.7617 25.1133 12.0918 25.209 12.4746 25.209ZM16.9512 26V19.6836H17.9707V20.6328H18.0645C18.2246 20.2969 18.4551 20.0371 18.7559 19.8535C19.0566 19.666 19.4395 19.5723 19.9043 19.5723C20.6152 19.5723 21.1602 19.7754 21.5391 20.1816C21.9219 20.584 22.1133 21.1602 22.1133 21.9102V26H21.0938V22.1562C21.0938 21.5859 20.9727 21.1641 20.7305 20.8906C20.4922 20.6133 20.1211 20.4746 19.6172 20.4746C19.2812 20.4746 18.9902 20.5469 18.7441 20.6914C18.498 20.8359 18.3066 21.041 18.1699 21.3066C18.0371 21.5723 17.9707 21.8906 17.9707 22.2617V26H16.9512ZM26.5605 28.2266C26.0527 28.2266 25.6094 28.1543 25.2305 28.0098C24.8516 27.8691 24.5488 27.668 24.3223 27.4062C24.0996 27.1484 23.9609 26.8477 23.9062 26.5039L23.918 26.498H24.9727L24.9785 26.5039C25.0332 26.7422 25.1973 26.9375 25.4707 27.0898C25.7441 27.2461 26.1074 27.3242 26.5605 27.3242C27.127 27.3242 27.5684 27.1953 27.8848 26.9375C28.2051 26.6836 28.3652 26.3242 28.3652 25.8594V24.582H28.2715C28.1387 24.8125 27.9727 25.0098 27.7734 25.1738C27.5742 25.3379 27.3496 25.4629 27.0996 25.5488C26.8496 25.6309 26.5801 25.6719 26.291 25.6719C25.748 25.6719 25.2773 25.543 24.8789 25.2852C24.4844 25.0234 24.1797 24.6641 23.9648 24.207C23.75 23.75 23.6426 23.2266 23.6426 22.6367V22.625C23.6426 22.0352 23.75 21.5117 23.9648 21.0547C24.1836 20.5938 24.4922 20.2324 24.8906 19.9707C25.2891 19.7051 25.7637 19.5723 26.3145 19.5723C26.6113 19.5723 26.8848 19.6191 27.1348 19.7129C27.3848 19.8066 27.6055 19.9395 27.7969 20.1113C27.9922 20.2832 28.1543 20.4883 28.2832 20.7266H28.3535V19.6836H29.373V25.9121C29.373 26.3809 29.2578 26.7891 29.0273 27.1367C28.8008 27.4844 28.4766 27.752 28.0547 27.9395C27.6328 28.1309 27.1348 28.2266 26.5605 28.2266ZM26.5137 24.7695C26.9043 24.7695 27.2383 24.6797 27.5156 24.5C27.7969 24.3164 28.0117 24.0645 28.1602 23.7441C28.3125 23.4238 28.3887 23.0547 28.3887 22.6367V22.625C28.3887 22.207 28.3125 21.8359 28.1602 21.5117C28.0117 21.1875 27.7969 20.9336 27.5156 20.75C27.2383 20.5664 26.9043 20.4746 26.5137 20.4746C26.123 20.4746 25.791 20.5664 25.5176 20.75C25.248 20.9336 25.041 21.1875 24.8965 21.5117C24.7559 21.8359 24.6855 22.207 24.6855 22.625V22.6367C24.6855 23.0547 24.7559 23.4238 24.8965 23.7441C25.041 24.0645 25.248 24.3164 25.5176 24.5C25.791 24.6797 26.123 24.7695 26.5137 24.7695Z" fill="white"/>
</svg>
