<svg width="26" height="26" viewBox="0 0 26 26" fill="none" xmlns="http://www.w3.org/2000/svg">
<g clip-path="url(#clip0_2208_2526)">
<path d="M3.20117 2.56C3.20117 1.14615 4.34732 0 5.76117 0H14.0812L22.4012 8.32V23.04C22.4012 24.4538 21.255 25.6 19.8412 25.6H5.76117C4.34732 25.6 3.20117 24.4538 3.20117 23.04V2.56Z" fill="#FF2F2F"/>
<path d="M16.002 8.32H22.402L14.082 0V6.4C14.082 7.46039 14.9416 8.32 16.002 8.32Z" fill="#E4E4E4"/>
<path d="M7.45516 18.39V12.9975H8.10766V13.6425H8.16766C8.25016 13.4925 8.35391 13.365 8.47891 13.26C8.60391 13.1525 8.74641 13.07 8.90641 13.0125C9.06641 12.955 9.24016 12.9263 9.42766 12.9263C9.77016 12.9263 10.0677 13.0138 10.3202 13.1888C10.5752 13.3613 10.7727 13.6038 10.9127 13.9163C11.0527 14.2288 11.1227 14.595 11.1227 15.015V15.0225C11.1227 15.445 11.0527 15.8125 10.9127 16.125C10.7727 16.4375 10.5752 16.68 10.3202 16.8525C10.0677 17.025 9.77016 17.1113 9.42766 17.1113C9.24266 17.1113 9.06766 17.0825 8.90266 17.025C8.74016 16.965 8.59516 16.8825 8.46766 16.7775C8.34266 16.6725 8.24266 16.5475 8.16766 16.4025H8.10766V18.39H7.45516ZM9.27766 16.5338C9.52516 16.5338 9.73641 16.4738 9.91141 16.3538C10.0864 16.2313 10.2202 16.0575 10.3127 15.8325C10.4077 15.605 10.4552 15.335 10.4552 15.0225V15.015C10.4552 14.7 10.4077 14.43 10.3127 14.205C10.2202 13.98 10.0864 13.8075 9.91141 13.6875C9.73641 13.565 9.52516 13.5038 9.27766 13.5038C9.03266 13.5038 8.82141 13.565 8.64391 13.6875C8.46641 13.81 8.33016 13.9838 8.23516 14.2088C8.14016 14.4338 8.09266 14.7025 8.09266 15.015V15.0225C8.09266 15.3325 8.14016 15.6013 8.23516 15.8288C8.33016 16.0538 8.46641 16.2275 8.64391 16.35C8.82141 16.4725 9.03266 16.5338 9.27766 16.5338ZM13.6352 17.1113C13.2952 17.1113 12.9977 17.025 12.7427 16.8525C12.4877 16.68 12.2902 16.4375 12.1502 16.125C12.0102 15.81 11.9402 15.4425 11.9402 15.0225V15.015C11.9402 14.5925 12.0102 14.225 12.1502 13.9125C12.2902 13.6 12.4864 13.3575 12.7389 13.185C12.9939 13.0125 13.2927 12.9263 13.6352 12.9263C13.8202 12.9263 13.9939 12.9563 14.1564 13.0163C14.3214 13.0738 14.4677 13.155 14.5952 13.26C14.7227 13.365 14.8227 13.49 14.8952 13.635H14.9552V11.3925H15.6077V17.04H14.9552V16.395H14.8952C14.8127 16.545 14.7089 16.6738 14.5839 16.7813C14.4589 16.8863 14.3164 16.9675 14.1564 17.025C13.9964 17.0825 13.8227 17.1113 13.6352 17.1113ZM13.7852 16.5338C14.0302 16.5338 14.2414 16.4725 14.4189 16.35C14.5964 16.2275 14.7327 16.0538 14.8277 15.8288C14.9227 15.6013 14.9702 15.3325 14.9702 15.0225V15.015C14.9702 14.7025 14.9227 14.4338 14.8277 14.2088C14.7327 13.9838 14.5964 13.81 14.4189 13.6875C14.2414 13.565 14.0302 13.5038 13.7852 13.5038C13.5402 13.5038 13.3289 13.565 13.1514 13.6875C12.9764 13.8075 12.8414 13.98 12.7464 14.205C12.6539 14.43 12.6077 14.7 12.6077 15.015V15.0225C12.6077 15.335 12.6539 15.605 12.7464 15.8325C12.8414 16.0575 12.9764 16.2313 13.1514 16.3538C13.3289 16.4738 13.5402 16.5338 13.7852 16.5338ZM17.1302 17.04V13.5375H16.4589V12.9975H17.1302V12.5475C17.1302 12.2775 17.1739 12.055 17.2614 11.88C17.3514 11.7025 17.4839 11.5713 17.6589 11.4863C17.8339 11.3988 18.0489 11.355 18.3039 11.355C18.3839 11.355 18.4589 11.3588 18.5289 11.3663C18.6014 11.3713 18.6714 11.38 18.7389 11.3925V11.9138C18.6989 11.9063 18.6527 11.9013 18.6002 11.8988C18.5477 11.8963 18.4927 11.895 18.4352 11.895C18.2027 11.895 18.0352 11.9513 17.9327 12.0638C17.8327 12.1763 17.7827 12.3438 17.7827 12.5663V12.9975H18.7014V13.5375H17.7827V17.04H17.1302Z" fill="white"/>
</g>
<defs>
<clipPath id="clip0_2208_2526">
<rect width="25.6" height="25.6" fill="white"/>
</clipPath>
</defs>
</svg>
