<svg width="19" height="20" viewBox="0 0 19 20" fill="none" xmlns="http://www.w3.org/2000/svg">
<path d="M0 15.5664C0 15.2344 0.0911458 14.9186 0.273438 14.6191C0.455729 14.3132 0.680339 14.0169 0.947266 13.7305C1.2207 13.4375 1.49414 13.1478 1.76758 12.8613C2.02799 12.5749 2.22331 12.2038 2.35352 11.748C2.48372 11.2858 2.57812 10.791 2.63672 10.2637C2.69531 9.73633 2.75391 9.21224 2.8125 8.69141C2.85807 7.58464 3.00781 6.59831 3.26172 5.73242C3.52214 4.86654 3.90951 4.14062 4.42383 3.55469C4.93815 2.96875 5.60872 2.54232 6.43555 2.27539C6.57227 1.61784 6.875 1.07422 7.34375 0.644531C7.81901 0.214844 8.39518 0 9.07227 0C9.74935 0 10.3223 0.214844 10.791 0.644531C11.2663 1.07422 11.5723 1.61784 11.709 2.27539C12.5358 2.54232 13.2064 2.96875 13.7207 3.55469C14.235 4.14062 14.6191 4.86654 14.873 5.73242C15.1335 6.59831 15.2897 7.58464 15.3418 8.69141C15.3939 9.21224 15.4492 9.73633 15.5078 10.2637C15.5664 10.791 15.6608 11.2858 15.791 11.748C15.9212 12.2038 16.1198 12.5749 16.3867 12.8613C16.6536 13.1478 16.9238 13.4375 17.1973 13.7305C17.4707 14.0169 17.6953 14.3132 17.8711 14.6191C18.0534 14.9186 18.1445 15.2344 18.1445 15.5664C18.1445 15.8529 18.0436 16.0807 17.8418 16.25C17.64 16.4193 17.3633 16.5039 17.0117 16.5039H12.3926C12.373 17.1224 12.2168 17.6823 11.9238 18.1836C11.6374 18.6914 11.2467 19.0951 10.752 19.3945C10.2637 19.694 9.70378 19.8438 9.07227 19.8438C8.44076 19.8438 7.8776 19.6908 7.38281 19.3848C6.89453 19.0853 6.50716 18.6849 6.2207 18.1836C5.93424 17.6823 5.78125 17.1224 5.76172 16.5039H1.13281C0.78125 16.5039 0.504557 16.4193 0.302734 16.25C0.100911 16.0807 0 15.8529 0 15.5664ZM1.43555 15.3711H16.709V15.2637C16.6699 15.1335 16.5788 14.974 16.4355 14.7852C16.2988 14.5964 16.1361 14.3978 15.9473 14.1895C15.7585 13.9811 15.5697 13.776 15.3809 13.5742C15.153 13.3333 14.9707 13.0469 14.834 12.7148C14.6973 12.3828 14.5866 12.0117 14.502 11.6016C14.4173 11.1914 14.349 10.752 14.2969 10.2832C14.2448 9.81445 14.196 9.32292 14.1504 8.80859C14.0853 7.61068 13.9225 6.63737 13.6621 5.88867C13.4082 5.13346 13.0664 4.55729 12.6367 4.16016C12.207 3.76302 11.709 3.48633 11.1426 3.33008C11.0059 3.29753 10.8952 3.24544 10.8105 3.17383C10.7324 3.10221 10.6868 2.99805 10.6738 2.86133C10.6413 2.36003 10.485 1.94336 10.2051 1.61133C9.92513 1.2793 9.54753 1.11328 9.07227 1.11328C8.59701 1.11328 8.2194 1.2793 7.93945 1.61133C7.66602 1.94336 7.50977 2.36003 7.4707 2.86133C7.45768 2.99805 7.40885 3.10221 7.32422 3.17383C7.24609 3.24544 7.13867 3.29753 7.00195 3.33008C6.42904 3.48633 5.92773 3.76302 5.49805 4.16016C5.07487 4.55729 4.73307 5.13346 4.47266 5.88867C4.21875 6.63737 4.05924 7.61068 3.99414 8.80859C3.94857 9.32292 3.89974 9.81445 3.84766 10.2832C3.79557 10.752 3.72721 11.1914 3.64258 11.6016C3.55794 12.0117 3.44401 12.3828 3.30078 12.7148C3.16406 13.0469 2.98503 13.3333 2.76367 13.5742C2.57487 13.776 2.38607 13.9811 2.19727 14.1895C2.00846 14.3978 1.84245 14.5964 1.69922 14.7852C1.5625 14.974 1.47461 15.1335 1.43555 15.2637V15.3711ZM6.92383 16.5039C6.96289 17.2005 7.18099 17.7507 7.57812 18.1543C7.97526 18.5645 8.47331 18.7695 9.07227 18.7695C9.67773 18.7695 10.1758 18.5645 10.5664 18.1543C10.9635 17.7507 11.1816 17.2005 11.2207 16.5039H6.92383Z" fill="#454545"/>
</svg>
