<svg width="32" height="32" viewBox="0 0 32 32" fill="none" xmlns="http://www.w3.org/2000/svg">
<path d="M19.9596 12.1823C20.3503 11.7917 20.983 11.7917 21.3737 12.181C21.7644 12.5717 21.7644 13.2057 21.3737 13.5964L15.151 19.819C14.9564 20.0137 14.7 20.112 14.444 20.112C14.188 20.112 13.9316 20.015 13.737 19.819L10.6263 16.7083C10.2356 16.3177 10.2356 15.6836 10.6263 15.293C10.7729 15.1464 10.9539 15.0548 11.1432 15.0182C11.2691 14.9939 11.3989 14.9939 11.5247 15.0182C11.714 15.0548 11.8951 15.1464 12.0417 15.293L14.4453 17.6979L19.9596 12.1823Z" fill="#0C6FFF"/>
<path fill-rule="evenodd" clip-rule="evenodd" d="M23.5 3C27.0467 3 29 4.95333 29 8.5V23.5C29 27.0467 27.0467 29 23.5 29H8.5C4.95333 29 3 27.0467 3 23.5V8.5C3 4.95333 4.95333 3 8.5 3H23.5ZM8.5 5C6.04667 5 5 6.04667 5 8.5V23.5C5 25.9533 6.04667 27 8.5 27H23.5C25.9533 27 27 25.9533 27 23.5V8.5C27 6.04667 25.9533 5 23.5 5H8.5Z" fill="#0C6FFF"/>
</svg>
