<svg width="20" height="20" viewBox="0 0 20 20" fill="none" xmlns="http://www.w3.org/2000/svg">
<path fill-rule="evenodd" clip-rule="evenodd" d="M16.8 10.161C16.8 9.65875 16.7549 9.1758 16.6712 8.71216H10V11.4521H13.8121C13.6479 12.3375 13.1489 13.0877 12.3987 13.59V15.3673H14.6879C16.0273 14.1341 16.8 12.3182 16.8 10.161Z" fill="#2A6FF3"/>
<path fill-rule="evenodd" clip-rule="evenodd" d="M9.99986 17.0833C11.9124 17.0833 13.5158 16.4491 14.6877 15.3672L12.3985 13.59C11.7643 14.015 10.9529 14.2661 9.99986 14.2661C8.15497 14.2661 6.59341 13.0201 6.0364 11.3458H3.66992V13.1811C4.83545 15.496 7.23091 17.0833 9.99986 17.0833Z" fill="#409343"/>
<path fill-rule="evenodd" clip-rule="evenodd" d="M6.03591 11.3459C5.89424 10.9209 5.81375 10.4669 5.81375 10C5.81375 9.53318 5.89424 9.0792 6.03591 8.6542V6.81897H3.66943C3.18969 7.77522 2.91602 8.85704 2.91602 10C2.91602 11.143 3.18969 12.2248 3.66943 13.1811L6.03591 11.3459Z" fill="#FF9800"/>
<path fill-rule="evenodd" clip-rule="evenodd" d="M9.99986 5.73387C11.0398 5.73387 11.9735 6.09125 12.7076 6.79315L14.7393 4.76152C13.5125 3.61852 11.9091 2.91663 9.99986 2.91663C7.23091 2.91663 4.83545 4.50394 3.66992 6.81891L6.0364 8.65414C6.59341 6.97989 8.15497 5.73387 9.99986 5.73387Z" fill="#F21F0F"/>
</svg>
