<svg width="24" height="24" viewBox="0 0 24 24" fill="none" xmlns="http://www.w3.org/2000/svg">
<path d="M17.0586 8.39355C17.3955 8.14903 17.8636 8.2248 18.1064 8.55859C18.3504 8.89355 18.2763 9.3644 17.9414 9.60742L13.0293 13.1787C12.7223 13.4027 12.359 13.5146 11.999 13.5146C11.639 13.5146 11.2777 13.4037 10.9697 13.1797L6.05859 9.60742C5.72359 9.36342 5.64955 8.89359 5.89355 8.55859C6.01514 8.39226 6.19252 8.2899 6.38184 8.25977C6.47641 8.24471 6.57395 8.2475 6.66895 8.26953C6.76399 8.29157 6.85695 8.33234 6.94141 8.39355L11.8535 11.9658C11.8755 11.9818 11.8991 11.994 11.9238 12.002C11.9731 12.0179 12.0259 12.0179 12.0752 12.002C12.1 11.994 12.1244 11.9819 12.1465 11.9658L17.0586 8.39355Z" fill="#919191"/>
<path fill-rule="evenodd" clip-rule="evenodd" d="M18 4.25C20.418 4.25 21.75 5.582 21.75 8V17C21.75 19.418 20.418 20.75 18 20.75H6C3.582 20.75 2.25 19.418 2.25 17V8C2.25 5.582 3.582 4.25 6 4.25H18ZM6 5.75C4.423 5.75 3.75 6.423 3.75 8V17C3.75 18.577 4.423 19.25 6 19.25H18C19.577 19.25 20.25 18.577 20.25 17V8C20.25 6.423 19.577 5.75 18 5.75H6Z" fill="#919191"/>
</svg>
