<svg width="39" height="39" viewBox="0 0 39 39" fill="none" xmlns="http://www.w3.org/2000/svg">
<rect width="38.3203" height="38.3203" rx="13.5248" fill="white"/>
<path d="M25.315 21.4518C26.1261 21.8275 26.1261 22.9845 25.315 23.3603L20.3628 25.6599C19.6041 26.0128 18.7176 26.0128 17.9589 25.6599L13.0067 23.3603C12.1957 22.9845 12.1956 21.8275 13.0067 21.4518L13.1124 21.407L17.4849 23.4278C18.0109 23.6757 18.5748 23.8035 19.1609 23.8035C19.7469 23.8035 20.3108 23.6757 20.8368 23.4278L25.2093 21.407L25.315 21.4518Z" fill="#0C6FFF"/>
<path d="M25.315 18.1982C26.1261 18.5815 26.126 19.7382 25.315 20.1141L20.3628 22.4064C19.9797 22.5866 19.574 22.6764 19.1609 22.6764C18.7477 22.6764 18.342 22.5866 17.9589 22.4064L13.0067 20.1141C12.1958 19.7382 12.1956 18.5815 13.0067 18.1982L13.1051 18.1535L16.6059 19.7839L17.4849 20.1897C18.0109 20.4301 18.5748 20.558 19.1609 20.558C19.7469 20.558 20.3108 20.4301 20.8368 20.1897L21.7158 19.7839L25.2166 18.1535L25.315 18.1982Z" fill="#0C6FFF"/>
<path d="M19.1609 12.3978C19.574 12.3978 19.9797 12.4878 20.3628 12.6605L25.315 14.9601C26.1261 15.3359 26.1261 16.4929 25.315 16.8686L25.2166 16.9134L24.5482 17.2216L23.8797 17.5371L20.3628 19.1675C19.9796 19.3403 19.574 19.431 19.1609 19.431C18.7477 19.431 18.3421 19.3403 17.9589 19.1675L14.442 17.5371L13.7735 17.2216L13.1051 16.9134L13.0067 16.8686C12.1956 16.4929 12.1957 15.3359 13.0067 14.9601L17.9589 12.6605C18.342 12.4878 18.7477 12.3978 19.1609 12.3978Z" fill="#0C6FFF"/>
</svg>
