<svg width="34" height="34" viewBox="0 0 34 34" fill="none" xmlns="http://www.w3.org/2000/svg">
<rect x="0.5" y="0.5" width="33" height="33" rx="11.5" stroke="#F2F2F2"/>
<path fill-rule="evenodd" clip-rule="evenodd" d="M15.6665 10.5C15.7328 10.5 15.7988 10.5014 15.8644 10.5039C17.9009 10.5811 19.6388 11.8438 20.4081 13.6198C22.2627 14.4352 23.4992 16.294 23.4992 18.3333C23.4992 19.0707 23.3334 19.8169 23.0187 20.4915C22.9581 20.6234 22.9822 20.7679 23.0135 20.8652L23.4465 22.1536C23.5683 22.5249 23.473 22.9233 23.1991 23.1979C23.0275 23.3695 22.8075 23.4715 22.5767 23.4941C22.4843 23.5032 22.3902 23.4992 22.2967 23.4824C22.25 23.474 22.2035 23.4623 22.1574 23.4473L20.8612 23.0137C20.8379 23.0061 20.8113 22.9984 20.7824 22.9928C20.7394 22.9845 20.6912 22.9799 20.6411 22.9831C20.5908 22.9862 20.5383 22.9975 20.4875 23.0208C19.9007 23.2943 19.2558 23.4555 18.6099 23.4915C18.5176 23.4967 18.4253 23.4993 18.3332 23.4993C18.2692 23.4993 18.2054 23.4979 18.1418 23.4954C16.1729 23.4207 14.3991 22.1983 13.6099 20.3952C13.5765 20.3799 13.5403 20.3695 13.507 20.3542C13.4807 20.3418 13.4529 20.332 13.4237 20.3255C13.3652 20.3125 13.3014 20.3113 13.2349 20.3216C13.2016 20.3268 13.1676 20.3347 13.1333 20.3457L11.8443 20.7793C11.7642 20.8058 11.6827 20.8223 11.6014 20.8288C11.5745 20.8309 11.5475 20.832 11.5207 20.832C11.4874 20.832 11.454 20.8301 11.4211 20.8268C11.1913 20.8042 10.972 20.7033 10.8006 20.5319C10.5253 20.2566 10.43 19.8575 10.5526 19.4896L10.9881 18.1921C11.0288 18.0621 11.027 17.9307 10.9797 17.8301C10.665 17.1547 10.5005 16.408 10.5005 15.666C10.5005 12.9064 12.6757 10.6452 15.4009 10.5065C15.4889 10.502 15.5775 10.5 15.6665 10.5ZM20.7811 14.9785C20.8118 15.2038 20.8325 15.432 20.8325 15.6654C20.8325 18.4249 18.6572 20.6861 15.9321 20.8249C15.8442 20.8293 15.7556 20.8314 15.6665 20.8314C15.6079 20.8314 15.5493 20.83 15.4907 20.8275C15.4323 20.8249 15.3739 20.8212 15.3156 20.8164L14.9666 20.7773C15.0147 20.844 15.0642 20.9093 15.1157 20.9727C15.8377 21.8602 16.8971 22.4208 18.078 22.4915C18.1622 22.4966 18.2471 22.4993 18.3325 22.4993C18.4067 22.4993 18.4809 22.497 18.5552 22.4928C19.0745 22.4637 19.5935 22.3336 20.0682 22.1126C20.4042 21.9586 20.7964 21.9412 21.1737 22.0638L22.4712 22.4987L22.065 21.1784C21.9411 20.7979 21.958 20.4061 22.1112 20.0716C22.3658 19.5256 22.4992 18.9253 22.4992 18.3327C22.4992 16.9927 21.8338 15.7505 20.7811 14.9785ZM15.4523 11.5046C13.2547 11.6164 11.5005 13.4399 11.5005 15.6654C11.5005 16.2627 11.6333 16.8643 11.884 17.4043C12.0391 17.7302 12.0599 18.1221 11.9387 18.5026L11.5005 19.8066L12.8208 19.3965C12.9474 19.356 13.0746 19.331 13.1997 19.321C13.2413 19.3176 13.283 19.3158 13.3241 19.3158C13.3779 19.3158 13.4311 19.3186 13.4836 19.3242C13.6409 19.3411 13.7916 19.3835 13.9315 19.4499C14.4005 19.6675 14.9199 19.7961 15.4426 19.8249C15.5172 19.829 15.5919 19.8314 15.6665 19.8314C15.7383 19.8314 15.8098 19.8298 15.8807 19.8262C18.0782 19.7143 19.8325 17.8908 19.8325 15.6654C19.8325 13.4399 18.0783 11.6165 15.8807 11.5046C15.8098 11.5009 15.7383 11.4994 15.6665 11.4993C15.5947 11.4993 15.5232 11.5009 15.4523 11.5046Z" fill="#757575"/>
</svg>
