<svg width="34" height="34" viewBox="0 0 34 34" fill="none" xmlns="http://www.w3.org/2000/svg">
<rect x="0.5" y="0.5" width="33" height="33" rx="11.5" stroke="#F2F2F2"/>
<path d="M17 11.251C17.414 11.251 17.75 11.587 17.75 12.001V16.6904L20.5303 19.4697C20.8233 19.7627 20.8233 20.2382 20.5303 20.5312C20.3843 20.6772 20.192 20.751 20 20.751C19.808 20.751 19.6157 20.6782 19.4697 20.5312L16.4697 17.5312C16.3287 17.3903 16.25 17.199 16.25 17.001V12.001C16.25 11.587 16.586 11.251 17 11.251Z" fill="#757575"/>
<path fill-rule="evenodd" clip-rule="evenodd" d="M17 6.25C22.928 6.25 27.75 11.072 27.75 17C27.75 22.928 22.928 27.75 17 27.75C11.072 27.75 6.25 22.928 6.25 17C6.25 11.072 11.072 6.25 17 6.25ZM17 7.75C11.899 7.75 7.75 11.899 7.75 17C7.75 22.101 11.899 26.25 17 26.25C22.101 26.25 26.25 22.101 26.25 17C26.25 11.899 22.101 7.75 17 7.75Z" fill="#757575"/>
</svg>
