<svg width="34" height="34" viewBox="0 0 34 34" fill="none" xmlns="http://www.w3.org/2000/svg">
<rect x="0.5" y="0.5" width="33" height="33" rx="11.5" stroke="#F2F2F2"/>
<path fill-rule="evenodd" clip-rule="evenodd" d="M19 17.25C23.244 17.25 24.75 20.3575 24.75 23.0195C24.7498 25.4252 23.4168 26.75 20.9971 26.75H13.0029C10.5832 26.75 9.25018 25.4252 9.25 23.0195C9.25 22.0217 9.46172 20.9605 9.9502 20.0244C10.0316 19.8683 10.1206 19.7157 10.2178 19.5674C11.0917 18.2333 12.6127 17.25 15 17.25H19ZM15 18.75C11.057 18.75 10.75 22.0175 10.75 23.0195C10.7501 24.5831 11.4242 25.25 13.0029 25.25H20.9971C21.0956 25.25 21.1907 25.2474 21.2822 25.2422C22.6574 25.1633 23.2499 24.4855 23.25 23.0195C23.25 22.0185 22.943 18.75 19 18.75H15Z" fill="#757575"/>
<path fill-rule="evenodd" clip-rule="evenodd" d="M17.0088 7.25C19.3528 7.25 21.2588 9.157 21.2588 11.5C21.2588 13.843 19.3528 15.75 17.0088 15.75C14.6649 15.7499 12.7588 13.8429 12.7588 11.5C12.7588 9.15708 14.6649 7.25013 17.0088 7.25ZM17.0088 8.75C15.4919 8.75013 14.2588 9.98308 14.2588 11.5C14.2588 13.0169 15.4919 14.2499 17.0088 14.25C18.5258 14.25 19.7588 13.017 19.7588 11.5C19.7588 9.983 18.5248 8.75 17.0088 8.75Z" fill="#757575"/>
</svg>
