<svg width="34" height="34" viewBox="0 0 34 34" fill="none" xmlns="http://www.w3.org/2000/svg">
<rect x="0.5" y="0.5" width="33" height="33" rx="11.5" stroke="#F2F2F2"/>
<path d="M14.8803 17.9126C15.0847 17.7068 15.4169 17.7068 15.622 17.9119C15.8271 18.117 15.8271 18.4499 15.622 18.655L14.6889 19.5881C14.5867 19.6903 14.4521 19.7419 14.3177 19.7419C14.184 19.7419 14.0487 19.691 13.9465 19.5888L13.4796 19.1219C13.2745 18.9168 13.2745 18.5839 13.4796 18.3788C13.6847 18.1744 14.0169 18.1737 14.2227 18.3788L14.3184 18.4752L14.8803 17.9126Z" fill="#757575"/>
<path d="M20.1508 18.225C20.4406 18.225 20.6758 18.4602 20.6758 18.75C20.6758 19.0398 20.4406 19.275 20.1508 19.275H17.3508C17.061 19.275 16.8258 19.0398 16.8258 18.75C16.8258 18.4602 17.061 18.225 17.3508 18.225H20.1508Z" fill="#757575"/>
<path d="M14.8803 14.4126C15.0847 14.2068 15.4169 14.2068 15.622 14.4119C15.8271 14.617 15.8271 14.9499 15.622 15.155L14.6889 16.0881C14.5867 16.1903 14.4521 16.2419 14.3177 16.2419C14.184 16.2419 14.0487 16.191 13.9465 16.0888L13.4796 15.6219C13.2745 15.4168 13.2745 15.0839 13.4796 14.8788C13.6847 14.6744 14.0169 14.6737 14.2227 14.8788L14.3184 14.9752L14.8803 14.4126Z" fill="#757575"/>
<path d="M20.1508 14.725C20.4406 14.725 20.6758 14.9602 20.6758 15.25C20.6758 15.5398 20.4406 15.775 20.1508 15.775H17.3508C17.061 15.775 16.8258 15.5398 16.8258 15.25C16.8258 14.9602 17.061 14.725 17.3508 14.725H20.1508Z" fill="#757575"/>
<path fill-rule="evenodd" clip-rule="evenodd" d="M20.9383 10.175C22.8003 10.175 23.8258 11.2005 23.8258 13.0625V20.9375C23.8258 22.7995 22.8003 23.825 20.9383 23.825H13.0633C11.2013 23.825 10.1758 22.7995 10.1758 20.9375V13.0625C10.1758 11.2005 11.2013 10.175 13.0633 10.175H20.9383ZM13.0633 11.225C11.7753 11.225 11.2258 11.7745 11.2258 13.0625V20.9375C11.2258 22.2255 11.7753 22.775 13.0633 22.775H20.9383C22.2263 22.775 22.7758 22.2255 22.7758 20.9375V13.0625C22.7758 11.7745 22.2263 11.225 20.9383 11.225H13.0633Z" fill="#757575"/>
</svg>
