<svg width="34" height="34" viewBox="0 0 34 34" fill="none" xmlns="http://www.w3.org/2000/svg">
<path fill-rule="evenodd" clip-rule="evenodd" d="M15.2175 11.8548C15.5455 11.7888 15.8826 11.8746 16.1433 12.0872C16.4092 12.3052 16.5619 12.6274 16.5619 12.9707V16.9381C16.562 17.214 16.7866 17.4381 17.0619 17.4381H21.0287L21.1563 17.4447C21.451 17.4774 21.7213 17.6239 21.9121 17.8568C22.1261 18.1174 22.2106 18.4552 22.1446 18.7819C21.8392 20.3032 20.9153 21.6686 19.612 22.5293C18.6434 23.1685 17.5269 23.4993 16.377 23.4993C15.9617 23.4993 15.5417 23.4558 15.1231 23.3685C12.8991 22.9045 11.0936 21.099 10.6302 18.8756C10.3017 17.2991 10.5996 15.7046 11.4694 14.3867C12.3301 13.0834 13.6962 12.1602 15.2175 11.8548ZM15.4141 12.8353C14.1522 13.0887 13.0187 13.8549 12.3041 14.9375C11.5822 16.0321 11.3355 17.358 11.6094 18.6719C11.9927 20.5118 13.4869 22.0059 15.3275 22.39C16.6402 22.6653 17.9679 22.418 19.0619 21.6953C20.1445 20.9806 20.9101 19.8472 21.1628 18.5859C21.1715 18.5433 21.1534 18.5102 21.1374 18.4902C21.1278 18.4781 21.1049 18.455 21.069 18.444L21.028 18.4381H17.0612C16.2347 18.4381 15.5614 17.7653 15.5612 16.9381V12.9707C15.5612 12.9109 15.5246 12.8741 15.5085 12.8613C15.5005 12.8543 15.4901 12.847 15.4779 12.8418L15.4356 12.8333C15.4289 12.8333 15.4221 12.8339 15.4141 12.8353Z" fill="#0C6FFF"/>
<path fill-rule="evenodd" clip-rule="evenodd" d="M17.5684 10.7858C17.8224 10.5658 18.1577 10.465 18.487 10.5117C21.0703 10.8724 23.1269 12.9291 23.4883 15.5124C23.5343 15.843 23.4342 16.1776 23.2136 16.4316C22.9916 16.687 22.6701 16.834 22.3327 16.834H18.3269C17.6863 16.8339 17.1654 16.3125 17.1654 15.6725V11.6673C17.1654 11.3293 17.3124 11.0085 17.5684 10.7858ZM18.3275 11.5C18.2785 11.5 18.2434 11.5237 18.2253 11.5397C18.2033 11.5584 18.1661 11.6007 18.1661 11.6667V15.6719C18.1661 15.7611 18.2382 15.8332 18.3275 15.8333H22.3327C22.3979 15.8333 22.4403 15.7967 22.459 15.7747C22.4777 15.7541 22.5061 15.7104 22.4974 15.6504C22.2068 13.5742 20.597 11.9076 18.5489 11.5332L18.349 11.5013L18.3275 11.5Z" fill="#0C6FFF"/>
</svg>
