<svg width="34" height="34" viewBox="0 0 34 34" fill="none" xmlns="http://www.w3.org/2000/svg">
<rect x="0.5" y="0.5" width="33" height="33" rx="11.5" fill="#F5F8FF"/>
<rect x="0.5" y="0.5" width="33" height="33" rx="11.5" stroke="#F5F8FF"/>
<path d="M21.9023 16.4902C21.9357 16.3156 22.153 16.2571 22.2624 16.3978C22.729 17.0018 22.9987 17.7653 22.9987 18.6686C22.9987 19.6885 22.6452 20.5425 22.0586 21.1758C22.1326 21.6424 22.3926 22.1697 22.9193 22.5964C23.079 22.7297 22.9859 22.9961 22.7793 22.9961C22.0926 23.0228 21.0392 22.9295 20.3926 22.2428C19.866 22.4295 19.2793 22.5228 18.666 22.5228C17.3207 22.5228 16.124 22.0714 15.3327 21.2454C15.2067 21.1134 15.2387 20.8569 15.5273 20.8796C15.6827 20.8902 15.8394 20.8958 15.9993 20.8958C19.0793 20.8958 21.4096 19.0955 21.9023 16.4902Z" fill="#2A6FF3"/>
<path d="M15.9993 11C18.7293 11 20.9448 12.6328 20.9941 15.3568C20.9948 15.3874 20.9987 15.416 20.9987 15.4473C20.9987 18.2266 18.76 19.8945 16.0007 19.8939C15.4667 19.8939 14.9546 19.8316 14.474 19.7109C14.314 19.6709 14.1579 19.6249 14.0059 19.5723C13.2612 20.3667 12.0445 20.4727 11.2559 20.4447C11.0166 20.4392 10.9118 20.1332 11.0951 19.9779C11.7002 19.4886 12 18.877 12.0833 18.3431C11.4054 17.6098 11 16.6259 11 15.4473C11 12.668 13.2387 11 15.9993 11Z" fill="#2A6FF3"/>
</svg>
