<svg width="34" height="34" viewBox="0 0 34 34" fill="none" xmlns="http://www.w3.org/2000/svg">
<rect x="0.5" y="0.5" width="33" height="33" rx="11.5" stroke="#F2F2F2"/>
<path d="M17.0545 11.7539C17.4327 11.7921 17.7283 12.1117 17.7283 12.5V12.789C18.7782 12.9701 19.6092 13.822 19.7332 14.916C19.78 15.3279 19.4839 15.6991 19.0721 15.7461C18.6702 15.7939 18.2891 15.4967 18.2429 15.0849C18.1923 14.6386 17.8377 14.2958 17.4012 14.2548L17.3133 14.2509H16.6824C16.1665 14.2509 15.7469 14.6696 15.7469 15.1855C15.7469 15.3945 15.8152 15.5978 15.9402 15.7548C16.0711 15.9237 16.252 16.0417 16.4568 16.0937L17.9021 16.4531C18.992 16.7281 19.7487 17.6985 19.7488 18.8144C19.7488 19.4624 19.495 20.0741 19.034 20.5351C18.674 20.8959 18.2201 21.125 17.7293 21.2089V21.5C17.7291 21.9138 17.3932 22.2499 16.9793 22.25C16.5654 22.25 16.2294 21.9138 16.2293 21.5V21.208C15.1974 21.013 14.3856 20.1648 14.2635 19.0849C14.2165 18.6729 14.5126 18.3018 14.9246 18.2548C15.3315 18.209 15.7077 18.5041 15.7537 18.916C15.8079 19.3918 16.2075 19.75 16.6834 19.75H17.3142C17.5622 19.7499 17.7954 19.6516 17.9734 19.4746C18.1513 19.2966 18.2478 19.0613 18.2478 18.8144C18.2477 18.3855 17.9558 18.0122 17.5379 17.9062L16.0935 17.5478C15.5636 17.4138 15.0915 17.1056 14.7615 16.6787C14.4325 16.2637 14.2478 15.7305 14.2478 15.1845C14.2479 13.9976 15.1023 13.0099 16.2283 12.7959V12.5C16.2283 12.086 16.5643 11.75 16.9783 11.75L17.0545 11.7539Z" fill="#757575"/>
<path fill-rule="evenodd" clip-rule="evenodd" d="M14.3494 8.34762C15.8104 6.88675 18.1892 6.88671 19.6502 8.34762L20.0916 8.78902C20.2305 8.92875 20.4241 9.00867 20.6209 9.00875H21.242L21.4344 9.01363C23.4115 9.11396 24.99 10.7542 24.99 12.7568V13.3779C24.9901 13.5758 25.0708 13.7692 25.2107 13.9091L25.6512 14.3496C27.1131 15.8105 27.113 18.1883 25.6502 19.6504L25.2088 20.0918C25.0689 20.2307 24.989 20.4252 24.989 20.622V21.2431C24.9888 23.3099 23.3068 24.9902 21.241 24.9902H20.6199C20.423 24.9903 20.2305 25.071 20.0906 25.2099L19.6492 25.6513C18.9192 26.3823 17.9588 26.748 16.9988 26.748C16.039 26.7479 15.0793 26.3822 14.3494 25.6513L13.908 25.2109C13.8037 25.1058 13.6685 25.0348 13.5242 25.0058L13.3787 24.9902H12.7576C10.6917 24.9902 9.00979 23.3099 9.00955 21.2431V20.622C9.00955 20.425 8.92885 20.2318 8.78885 20.0918L8.34842 19.6504C6.88649 18.1883 6.88644 15.8105 8.34842 14.3496L8.78885 13.9091C8.92879 13.7692 9.00949 13.5758 9.00955 13.3779V12.7568C9.00955 10.6898 10.6916 9.00875 12.7576 9.00875H13.3787C13.5754 9.00864 13.7681 8.92872 13.908 8.78902L14.3494 8.34762ZM18.5906 9.40914C17.7406 8.56014 16.2599 8.56014 15.4099 9.40914L14.9695 9.84957C14.5506 10.2685 13.9705 10.5086 13.3787 10.5088H12.7576C11.5186 10.5088 10.5096 11.5168 10.5096 12.7568V13.3779C10.5095 13.9788 10.2753 14.5438 9.85037 14.9687L9.40896 15.4101C8.9842 15.8351 8.75076 16.3991 8.75076 17C8.75084 17.6008 8.98409 18.1649 9.40896 18.5898L9.85037 19.0302C10.2754 19.4552 10.5096 20.021 10.5096 20.622V21.2431C10.5098 22.4819 11.5187 23.4902 12.7576 23.4902H13.3787L13.5994 23.5019C14.1135 23.5535 14.6037 23.7827 14.9695 24.1494L15.4099 24.5908C16.2599 25.4398 17.7406 25.4398 18.5906 24.5908L19.031 24.1494C19.4489 23.7305 20.029 23.4903 20.6219 23.4902H21.2429C22.4818 23.4902 23.4908 22.4829 23.491 21.2431V20.622C23.491 20.021 23.7252 19.4552 24.1502 19.0302L24.5916 18.5898C25.0165 18.1649 25.2487 17.6008 25.2488 17C25.2488 16.3991 25.0163 15.8351 24.5916 15.4101L24.1502 14.9687C23.7252 14.5438 23.4911 13.9788 23.491 13.3779V12.7568C23.491 11.5952 22.6043 10.6358 21.4724 10.5205L21.2429 10.5088H20.6219C20.03 10.5086 19.4499 10.2685 19.031 9.84957L18.5906 9.40914Z" fill="#757575"/>
</svg>
