<svg width="34" height="34" viewBox="0 0 34 34" fill="none" xmlns="http://www.w3.org/2000/svg">
<path d="M12 0.5H22C28.3513 0.5 33.5 5.64873 33.5 12V22C33.5 28.3513 28.3513 33.5 22 33.5H12C5.64873 33.5 0.5 28.3513 0.5 22V12C0.5 5.64873 5.64873 0.5 12 0.5Z" fill="#F5F8FF"/>
<path d="M12 0.5H22C28.3513 0.5 33.5 5.64873 33.5 12V22C33.5 28.3513 28.3513 33.5 22 33.5H12C5.64873 33.5 0.5 28.3513 0.5 22V12C0.5 5.64873 5.64873 0.5 12 0.5Z" stroke="#F5F8FF"/>
<path d="M15.5404 20.0982C15.8422 20.0982 16.0871 20.3432 16.0871 20.645C16.0871 20.9468 15.8422 21.1917 15.5404 21.1917H13.3534C13.0516 21.1917 12.8066 20.9468 12.8066 20.645C12.8066 20.3432 13.0516 20.0982 13.3534 20.0982H15.5404Z" fill="#0C6FFF"/>
<path d="M17.7274 17.9112C18.0292 17.9112 18.2741 18.1562 18.2741 18.458C18.2741 18.7598 18.0292 19.0047 17.7274 19.0047H13.3534C13.0516 19.0047 12.8066 18.7598 12.8066 18.458C12.8066 18.1562 13.0516 17.9112 13.3534 17.9112H17.7274Z" fill="#0C6FFF"/>
<path d="M14.3365 11.7183C14.6121 11.7463 14.8277 11.9792 14.8277 12.2622V12.2657C15.3262 12.4218 15.7062 12.863 15.7661 13.4176C15.7981 13.7178 15.5821 13.9884 15.2819 14.0206C15.2435 14.0243 15.2054 14.0242 15.1688 14.0206C14.9123 13.9955 14.707 13.7985 14.679 13.5358C14.6644 13.3981 14.56 13.2946 14.4376 13.2944H14.1422C14.008 13.2944 13.8994 13.4169 13.8994 13.5671C13.8994 13.6313 13.92 13.6942 13.9542 13.7394C13.9812 13.7736 14.0234 13.8152 14.0888 13.8327L14.7672 14.0078C15.3611 14.1639 15.7746 14.7074 15.7746 15.3312C15.7746 15.6906 15.638 16.0307 15.3902 16.2888C15.2306 16.4534 15.0375 16.5649 14.8285 16.6305V16.6355C14.8285 16.9184 14.6128 17.1514 14.3372 17.1794C14.319 17.1812 14.3005 17.1822 14.2817 17.1822C14.2628 17.1822 14.2439 17.1812 14.2255 17.1794C13.9499 17.1513 13.735 16.9184 13.735 16.6355V16.6262C13.2458 16.4651 12.8735 16.0275 12.8145 15.4793C12.7824 15.179 12.999 14.9085 13.2993 14.8763C13.3372 14.8723 13.3747 14.8722 13.411 14.8756C13.6662 14.8996 13.8735 15.0982 13.9023 15.3611C13.9168 15.496 14.0226 15.6025 14.1436 15.6025H14.439C14.5161 15.6024 14.5714 15.5626 14.6035 15.5291C14.6319 15.4993 14.6818 15.4326 14.6818 15.3305C14.6818 15.2038 14.6038 15.0943 14.4924 15.065L13.8147 14.8906C13.5231 14.8147 13.2637 14.6392 13.0814 14.3979C12.9044 14.1654 12.8059 13.8696 12.8059 13.5671C12.8059 12.9599 13.1977 12.45 13.7342 12.2729V12.2622C13.7342 11.9792 13.9492 11.7463 14.2248 11.7183C14.2431 11.7164 14.2621 11.7154 14.281 11.7154L14.3365 11.7183Z" fill="#0C6FFF"/>
<path fill-rule="evenodd" clip-rule="evenodd" d="M18.4564 9.89221C20.2191 9.89221 21.1901 10.8632 21.1901 12.626V14.9952H22.4659C23.3706 14.9952 24.1061 15.7308 24.1061 16.6355V22.103C24.1061 23.2089 23.2073 24.1077 22.1014 24.1077H12.6244C10.8617 24.1077 9.89062 23.1367 9.89062 21.374V12.626C9.89062 10.8632 10.8617 9.89221 12.6244 9.89221H18.4564ZM12.6244 10.9857C11.4747 10.9857 10.9841 11.4763 10.9841 12.626V21.374C10.9841 22.5236 11.4747 23.0142 12.6244 23.0142H20.3159C20.1759 22.7409 20.0966 22.431 20.0966 22.103V12.626C20.0966 11.4763 19.606 10.9857 18.4564 10.9857H12.6244ZM21.1901 22.103C21.1901 22.6052 21.5991 23.0142 22.1014 23.0142C22.6037 23.0142 23.0126 22.6052 23.0126 22.103V16.6355C23.0126 16.3337 22.7677 16.0887 22.4659 16.0887H21.1901V22.103Z" fill="#0C6FFF"/>
</svg>
