<svg width="34" height="34" viewBox="0 0 34 34" fill="none" xmlns="http://www.w3.org/2000/svg">
<rect x="0.50846" y="0.50846" width="32.9831" height="32.9831" rx="11.6946" stroke="#F2F2F2" stroke-width="1.01692"/>
<path d="M23.0432 19.882C23.1089 19.8893 23.1745 19.9093 23.2359 19.9435C23.4805 20.0819 23.5681 20.392 23.4305 20.6367C23.2759 20.9119 23.0445 21.125 22.7612 21.2524L18.2996 23.324C17.8867 23.5159 17.444 23.612 17.0006 23.612C16.5572 23.612 16.1139 23.5159 15.701 23.324L11.2341 21.2491C10.9568 21.1244 10.7246 20.9126 10.57 20.6367C10.4324 20.392 10.52 20.0818 10.7653 19.9442C11.0094 19.8079 11.3202 19.8941 11.4579 20.1395C11.506 20.2256 11.5711 20.2863 11.6565 20.3242L16.13 22.4011C16.6758 22.6546 17.3261 22.6546 17.8712 22.4011L22.3388 20.3269C22.4303 20.2855 22.4952 20.2249 22.5434 20.1388C22.6119 20.016 22.7239 19.9331 22.8492 19.8979C22.9118 19.8803 22.9776 19.8747 23.0432 19.882Z" fill="#757575"/>
<path d="M23.0432 16.9517C23.1089 16.959 23.1745 16.979 23.2359 17.0133C23.4806 17.1502 23.568 17.4604 23.4318 17.7064C23.2773 17.9824 23.0452 18.1947 22.7618 18.3222L18.3002 20.3937C17.8874 20.5856 17.4446 20.6817 17.0013 20.6817C16.5579 20.6817 16.1145 20.5856 15.7017 20.3937L11.2347 18.3195C10.9568 18.1948 10.7253 17.9824 10.5707 17.7064C10.4338 17.4617 10.5213 17.1515 10.766 17.0139C10.827 16.9799 10.8924 16.9603 10.958 16.953C11.0235 16.9458 11.0894 16.9514 11.152 16.9689C11.2773 17.004 11.3897 17.0866 11.4585 17.2092C11.5067 17.2953 11.5717 17.356 11.6565 17.394L16.13 19.4708C16.3687 19.5817 16.6276 19.6443 16.8887 19.6582C16.9635 19.6622 17.0384 19.6622 17.1132 19.6582C17.3742 19.6443 17.6328 19.5817 17.8712 19.4708L22.3388 17.3966C22.4303 17.3552 22.4952 17.2947 22.5434 17.2086C22.6119 17.0855 22.7239 17.0027 22.8492 16.9676C22.9118 16.9501 22.9776 16.9444 23.0432 16.9517Z" fill="#757575"/>
<path fill-rule="evenodd" clip-rule="evenodd" d="M15.7017 10.6767C16.5267 10.2944 17.4732 10.2944 18.2989 10.6767L22.7638 12.7463C23.2858 12.9883 23.6099 13.4963 23.6099 14.0711C23.6099 14.646 23.2858 15.1538 22.7638 15.3959L18.2989 17.4655C17.9382 17.6327 17.5537 17.7272 17.1661 17.7482C17.1108 17.7511 17.0554 17.7528 16.9999 17.7528C16.9445 17.7528 16.8891 17.7511 16.8338 17.7482C16.4464 17.7273 16.0623 17.6327 15.701 17.4655L11.2361 15.3959C10.7147 15.1538 10.3906 14.6467 10.3906 14.0711C10.3907 13.4956 10.7148 12.9883 11.2367 12.7463L15.7017 10.6767ZM16.8887 11.4096C16.6291 11.4237 16.3713 11.4868 16.1287 11.599L11.6638 13.6686C11.4261 13.7796 11.4076 14.0044 11.4075 14.0711C11.4075 14.1375 11.4258 14.3631 11.6644 14.4743L16.1293 16.5439C16.3717 16.6563 16.6297 16.7193 16.8894 16.7332C16.9635 16.7372 17.0377 16.7372 17.1118 16.7332C17.3716 16.7191 17.6294 16.656 17.8712 16.5439L22.3361 14.4743C22.5748 14.3638 22.593 14.1375 22.593 14.0711C22.593 14.0044 22.5745 13.7796 22.3361 13.6686L17.8712 11.599C17.6292 11.4868 17.3709 11.4237 17.1112 11.4096C17.0741 11.4076 17.037 11.4063 16.9999 11.4063C16.9629 11.4063 16.9258 11.4076 16.8887 11.4096Z" fill="#757575"/>
</svg>
