<svg width="23" height="23" viewBox="0 0 23 23" fill="none" xmlns="http://www.w3.org/2000/svg">
<path d="M13.2559 22.1074C12.8405 22.1074 12.5326 21.9606 12.332 21.667C12.1387 21.3734 11.9704 20.9831 11.8271 20.4961L9.50684 12.5898L1.54688 10.2588C1.07422 10.1156 0.698242 9.94727 0.418945 9.75391C0.139648 9.56055 0 9.25977 0 8.85156C0 8.52214 0.125326 8.23926 0.375977 8.00293C0.633789 7.75944 0.966797 7.55892 1.375 7.40137L20.1201 0.236328C20.3206 0.157552 20.5068 0.10026 20.6787 0.0644531C20.8506 0.0214844 21.0081 0 21.1514 0C21.4521 0 21.6849 0.0859375 21.8496 0.257812C22.0215 0.422526 22.1074 0.655273 22.1074 0.956055C22.1074 1.09928 22.0859 1.25684 22.043 1.42871C22.0072 1.60059 21.9499 1.78678 21.8711 1.9873L14.7275 20.668C14.5557 21.1191 14.348 21.4701 14.1045 21.7207C13.8682 21.9785 13.5853 22.1074 13.2559 22.1074ZM9.88281 11.333L18.2402 2.97559C18.4479 2.7679 18.7165 2.53158 19.0459 2.2666C19.3753 1.99447 19.6725 1.75456 19.9375 1.54688C19.651 1.67578 19.3503 1.81543 19.0352 1.96582C18.7201 2.11621 18.3978 2.25228 18.0684 2.37402L2.08398 8.4541C1.95508 8.49707 1.86556 8.54362 1.81543 8.59375C1.77246 8.64388 1.75098 8.69401 1.75098 8.74414C1.75098 8.80143 1.77604 8.85156 1.82617 8.89453C1.8763 8.93034 1.98014 8.96973 2.1377 9.0127L9.88281 11.333ZM13.3633 20.3672C13.4206 20.3672 13.4707 20.3421 13.5137 20.292C13.5638 20.2419 13.6104 20.1523 13.6533 20.0234L19.7334 4.02832C19.8551 3.69889 19.9912 3.37663 20.1416 3.06152C20.292 2.74642 20.4352 2.44206 20.5713 2.14844C20.3564 2.42057 20.113 2.72493 19.8408 3.06152C19.5758 3.39095 19.3395 3.65951 19.1318 3.86719L10.7637 12.2246L13.0947 19.9697C13.1377 20.1201 13.1771 20.224 13.2129 20.2812C13.2559 20.3385 13.306 20.3672 13.3633 20.3672Z" fill="#303030"/>
</svg>
