<svg width="25" height="25" viewBox="0 0 25 25" fill="none" xmlns="http://www.w3.org/2000/svg">
<path d="M11.1562 24.6562C10.7422 24.6562 10.3906 24.543 10.1016 24.3164C9.8125 24.0898 9.62109 23.7695 9.52734 23.3555L9 21.1055L8.4375 20.9062L6.48047 22.125C6.12891 22.3438 5.76562 22.4297 5.39062 22.3828C5.02344 22.3438 4.69531 22.1797 4.40625 21.8906L2.76562 20.25C2.46094 19.9453 2.28906 19.6133 2.25 19.2539C2.21094 18.8867 2.30078 18.5273 2.51953 18.1758L3.75 16.2188L3.55078 15.6797L1.30078 15.1406C0.894531 15.0547 0.574219 14.8672 0.339844 14.5781C0.113281 14.2812 0 13.9297 0 13.5234V11.1914C0 10.7773 0.113281 10.4297 0.339844 10.1484C0.566406 9.85938 0.886719 9.66406 1.30078 9.5625L3.53906 9.03516L3.75 8.46094L2.51953 6.50391C2.29297 6.16016 2.19922 5.80469 2.23828 5.4375C2.28516 5.07031 2.45703 4.73828 2.75391 4.44141L4.39453 2.78906C4.69141 2.50781 5.01953 2.34375 5.37891 2.29688C5.74609 2.25 6.10547 2.33594 6.45703 2.55469L8.42578 3.78516L9 3.5625L9.52734 1.30078C9.62109 0.894531 9.8125 0.578125 10.1016 0.351562C10.3906 0.117188 10.7422 0 11.1562 0H13.5234C13.9375 0 14.2852 0.117188 14.5664 0.351562C14.8555 0.578125 15.0469 0.894531 15.1406 1.30078L15.6562 3.5625L16.2422 3.78516L18.2109 2.55469C18.5547 2.33594 18.9102 2.25 19.2773 2.29688C19.6445 2.34375 19.9727 2.50781 20.2617 2.78906L21.9141 4.44141C22.2109 4.73828 22.3789 5.07031 22.418 5.4375C22.457 5.80469 22.3672 6.16016 22.1484 6.50391L20.9062 8.46094L21.1289 9.03516L23.3672 9.5625C23.7734 9.66406 24.0898 9.85938 24.3164 10.1484C24.5508 10.4297 24.668 10.7773 24.668 11.1914V13.5234C24.668 13.9297 24.5508 14.2812 24.3164 14.5781C24.0898 14.8672 23.7734 15.0547 23.3672 15.1406L21.1172 15.6797L20.9062 16.2188L22.1484 18.1758C22.3672 18.5273 22.4531 18.8867 22.4062 19.2539C22.3672 19.6133 22.1992 19.9453 21.9023 20.25L20.25 21.8906C19.9609 22.1797 19.6328 22.3438 19.2656 22.3828C18.8984 22.4297 18.5391 22.3438 18.1875 22.125L16.2188 20.9062L15.6562 21.1055L15.1406 23.3555C15.0469 23.7695 14.8555 24.0898 14.5664 24.3164C14.2852 24.543 13.9375 24.6562 13.5234 24.6562H11.1562ZM11.3086 23.2617H13.3711C13.6445 23.2617 13.8047 23.1289 13.8516 22.8633L14.5312 20.0156C14.8516 19.9297 15.1602 19.8281 15.457 19.7109C15.7539 19.5859 16.0195 19.457 16.2539 19.3242L18.7383 20.8711C18.9727 21.0195 19.1875 20.9922 19.3828 20.7891L20.8125 19.3594C21 19.1719 21.0195 18.9609 20.8711 18.7266L19.3359 16.2539C19.4609 16.0117 19.582 15.7461 19.6992 15.457C19.8242 15.1602 19.9297 14.8516 20.0156 14.5312L22.875 13.8633C23.1406 13.8086 23.2734 13.6445 23.2734 13.3711V11.332C23.2734 11.0664 23.1406 10.9023 22.875 10.8398L20.0273 10.1719C19.9414 9.82812 19.832 9.50781 19.6992 9.21094C19.5664 8.91406 19.4492 8.65625 19.3477 8.4375L20.8828 5.96484C21.0312 5.72266 21.0117 5.50781 20.8242 5.32031L19.3945 3.90234C19.1914 3.70703 18.9727 3.67969 18.7383 3.82031L16.2539 5.35547C16.0195 5.23047 15.7539 5.10938 15.457 4.99219C15.168 4.86719 14.8594 4.75781 14.5312 4.66406L13.8516 1.80469C13.8047 1.53906 13.6445 1.40625 13.3711 1.40625H11.3086C11.0352 1.40625 10.8711 1.53906 10.8164 1.80469L10.1484 4.65234C9.83594 4.73828 9.52344 4.84375 9.21094 4.96875C8.90625 5.09375 8.63281 5.21875 8.39062 5.34375L5.91797 3.82031C5.68359 3.67969 5.46875 3.70703 5.27344 3.90234L3.83203 5.32031C3.65234 5.50781 3.63281 5.72266 3.77344 5.96484L5.30859 8.4375C5.21484 8.65625 5.10156 8.91797 4.96875 9.22266C4.83594 9.51953 4.72656 9.83594 4.64062 10.1719L1.79297 10.8398C1.53516 10.9023 1.40625 11.0664 1.40625 11.332V13.3711C1.40625 13.6445 1.53516 13.8086 1.79297 13.8633L4.65234 14.5312C4.73828 14.8516 4.84375 15.1602 4.96875 15.457C5.09375 15.7461 5.21484 16.0117 5.33203 16.2539L3.78516 18.7266C3.64453 18.9609 3.66797 19.1719 3.85547 19.3594L5.28516 20.7891C5.48047 20.9922 5.69141 21.0195 5.91797 20.8711L8.40234 19.3242C8.64453 19.457 8.91406 19.5859 9.21094 19.7109C9.50781 19.8281 9.82031 19.9297 10.1484 20.0156L10.8164 22.8633C10.8711 23.1289 11.0352 23.2617 11.3086 23.2617ZM12.3398 16.8047C11.5117 16.8047 10.7578 16.6055 10.0781 16.207C9.39844 15.8008 8.85938 15.2578 8.46094 14.5781C8.0625 13.8984 7.86328 13.1484 7.86328 12.3281C7.86328 11.5 8.0625 10.75 8.46094 10.0781C8.85938 9.39844 9.39844 8.85938 10.0781 8.46094C10.7578 8.05469 11.5117 7.85156 12.3398 7.85156C13.1602 7.85156 13.9062 8.05469 14.5781 8.46094C15.2578 8.85938 15.7969 9.39844 16.1953 10.0781C16.6016 10.75 16.8047 11.5 16.8047 12.3281C16.8047 13.1484 16.6016 13.8984 16.1953 14.5781C15.7969 15.2578 15.2578 15.8008 14.5781 16.207C13.9062 16.6055 13.1602 16.8047 12.3398 16.8047ZM12.3398 15.4102C12.9023 15.4102 13.4141 15.2734 13.875 15C14.3438 14.7188 14.7148 14.3438 14.9883 13.875C15.2695 13.4062 15.4102 12.8906 15.4102 12.3281C15.4102 11.7578 15.2695 11.2422 14.9883 10.7812C14.7148 10.3125 14.3438 9.94141 13.875 9.66797C13.4141 9.38672 12.9023 9.24609 12.3398 9.24609C11.7695 9.24609 11.25 9.38672 10.7812 9.66797C10.3203 9.94141 9.94922 10.3125 9.66797 10.7812C9.39453 11.2422 9.25781 11.7578 9.25781 12.3281C9.25781 12.8906 9.39453 13.4062 9.66797 13.875C9.94922 14.3438 10.3203 14.7188 10.7812 15C11.25 15.2734 11.7695 15.4102 12.3398 15.4102Z" fill="#454545"/>
</svg>
