<svg width="61" height="61" viewBox="0 0 61 61" fill="none" xmlns="http://www.w3.org/2000/svg">
<path fill-rule="evenodd" clip-rule="evenodd" d="M32.5873 8.1468C33.625 8.1468 34.4673 8.98904 34.4673 10.0268C34.4673 11.0646 33.625 11.9068 32.5873 11.9068H15.0406C11.0876 11.9068 9.40062 13.5938 9.40062 17.5468V38.0775L14.4384 33.0372C15.1625 32.3121 16.1273 31.9061 17.1214 31.8157C17.4046 31.7899 17.69 31.7899 17.9732 31.8157C18.9673 31.9061 19.9321 32.3121 20.6561 33.0372L22.5606 34.9417L34.4918 23.0106C35.2158 22.2854 36.1807 21.8795 37.1747 21.789C37.4579 21.7633 37.7433 21.7633 38.0266 21.789C39.0206 21.8795 39.9854 22.2854 40.7095 23.0106L50.7606 33.0617V27.5735C50.7606 26.5357 51.6029 25.6935 52.6406 25.6935C53.6784 25.6935 54.5206 26.5357 54.5206 27.5735V42.6135C54.5206 48.6746 51.1817 52.0135 45.1206 52.0135H15.0406C8.97951 52.0135 5.64062 48.6746 5.64062 42.6135V17.5468C5.64062 11.4857 8.97951 8.1468 15.0406 8.1468H32.5873ZM37.488 25.4438C37.3782 25.4733 37.2673 25.548 37.1478 25.6665L24.7638 38.0481C23.5982 39.2187 21.5208 39.2212 20.3502 38.0481L17.9953 35.6957C17.8758 35.5772 17.7647 35.5025 17.655 35.4729C17.5821 35.4532 17.51 35.4533 17.4371 35.4729C17.3273 35.5024 17.2164 35.5771 17.0969 35.6957L9.44224 43.3478C9.65531 46.7594 11.3508 48.2535 15.0406 48.2535H45.1206C49.0736 48.2535 50.7607 46.5665 50.7557 42.6135V38.3761L38.0461 25.6665C37.9267 25.548 37.8156 25.4734 37.7059 25.4438C37.633 25.4241 37.5609 25.4242 37.488 25.4438Z" fill="#2A6FF3"/>
<path d="M20.054 19.4268C21.7836 19.4268 23.1873 20.8305 23.1873 22.5601C23.1873 23.6406 22.6395 24.594 21.8067 25.1574C21.6397 25.2703 21.4608 25.3667 21.273 25.4462C20.8982 25.6049 20.4864 25.6935 20.054 25.6935C18.3244 25.6935 16.9206 24.2897 16.9206 22.5601C16.9206 20.8305 18.3244 19.4268 20.054 19.4268Z" fill="#2A6FF3"/>
<path d="M47.6273 5.64014C48.6651 5.64014 49.5073 6.48238 49.5073 7.52014V10.6535H52.6406C53.6784 10.6535 54.5206 11.4957 54.5206 12.5335C54.5206 13.5712 53.6784 14.4135 52.6406 14.4135H49.5073V17.5468C49.5073 18.5846 48.6651 19.4268 47.6273 19.4268C46.5895 19.4268 45.7473 18.5846 45.7473 17.5468V14.4135H42.614C41.5762 14.4135 40.734 13.5712 40.734 12.5335C40.734 11.4957 41.5762 10.6535 42.614 10.6535H45.7473V7.52014C45.7473 6.48238 46.5895 5.64014 47.6273 5.64014Z" fill="#2A6FF3"/>
</svg>
