<svg width="24" height="26" viewBox="0 0 24 26" fill="none" xmlns="http://www.w3.org/2000/svg">
<path d="M7.6276 16.7383C8.01694 16.3463 8.64971 16.3463 9.04037 16.737C9.43103 17.1276 9.43103 17.7617 9.04037 18.1523L7.26302 19.9297C7.07502 20.1177 6.82132 20.2227 6.55599 20.2227C6.29066 20.2227 6.03562 20.1177 5.84896 19.931L4.95964 19.0417C4.56897 18.651 4.56897 18.017 4.95964 17.6263C5.10623 17.4797 5.28727 17.3881 5.47656 17.3516C5.60244 17.3272 5.7322 17.3272 5.85807 17.3516C6.04737 17.3881 6.22841 17.4797 6.375 17.6263L6.55729 17.8099L7.6276 16.7383Z" fill="#0C6FFF"/>
<path d="M17.6667 17.3333C18.2187 17.3333 18.6667 17.7813 18.6667 18.3333C18.6667 18.8853 18.2187 19.3333 17.6667 19.3333H12.3333C11.7813 19.3333 11.3333 18.8853 11.3333 18.3333C11.3333 17.7813 11.7813 17.3333 12.3333 17.3333H17.6667Z" fill="#0C6FFF"/>
<path d="M7.6276 11.4049C8.01694 11.013 8.64971 11.013 9.04037 11.4036C9.43103 11.7943 9.43103 12.4283 9.04037 12.819L7.26302 14.5964C7.07502 14.7844 6.82132 14.8893 6.55599 14.8893C6.29066 14.8893 6.03562 14.7843 5.84896 14.5977L4.95964 13.7083C4.56897 13.3177 4.56897 12.6836 4.95964 12.293C5.10623 12.1464 5.28727 12.0548 5.47656 12.0182C5.60244 11.9939 5.7322 11.9939 5.85807 12.0182C6.04737 12.0548 6.22841 12.1464 6.375 12.293L6.55729 12.4766L7.6276 11.4049Z" fill="#0C6FFF"/>
<path d="M17.6667 12C18.2187 12 18.6667 12.448 18.6667 13C18.6667 13.552 18.2187 14 17.6667 14H12.3333C11.7813 14 11.3333 13.552 11.3333 13C11.3333 12.448 11.7813 12 12.3333 12H17.6667Z" fill="#0C6FFF"/>
<path fill-rule="evenodd" clip-rule="evenodd" d="M15 0C16.7613 0 17.8446 0.994667 17.974 2.66667H18.3333C21.5573 2.66667 23.3333 4.44267 23.3333 7.66667V21C23.3333 24.224 21.5573 26 18.3333 26H5C1.776 26 0 24.224 0 21V7.66667C0 4.44267 1.776 2.66667 5 2.66667H5.36068C5.49003 0.994697 6.57202 0 8.33333 0H15ZM5 4.66667C2.89733 4.66667 2 5.564 2 7.66667V21C2 23.1027 2.89733 24 5 24H18.3333C20.436 24 21.3333 23.1027 21.3333 21V7.66667C21.3333 5.564 20.436 4.66667 18.3333 4.66667H17.974C17.8446 6.33867 16.7613 7.33333 15 7.33333H8.33333C6.68229 7.33333 5.62797 6.45928 5.39583 4.97266C5.38033 4.87336 5.36878 4.77135 5.36068 4.66667H5ZM8.33333 2C7.548 2 7.33333 2.21467 7.33333 3V4.33333C7.33333 5.11867 7.548 5.33333 8.33333 5.33333H15C15.7853 5.33333 16 5.11867 16 4.33333V3C16 2.21467 15.7853 2 15 2H8.33333Z" fill="#0C6FFF"/>
</svg>
