<svg width="22" height="31" viewBox="0 0 22 31" fill="none" xmlns="http://www.w3.org/2000/svg">
<path fill-rule="evenodd" clip-rule="evenodd" d="M15.2447 13.6079C15.2447 14.3385 14.89 15.0236 14.2934 15.4452C14.89 15.0239 15.2447 14.3382 15.2447 13.6079ZM8.74011 9.21839C8.15487 9.64145 7.80826 10.3197 7.80826 11.0418C7.80826 10.3197 8.15487 9.64145 8.74011 9.21839Z" fill="#4570FF"/>
<path d="M8.74011 9.21839L15.2447 4.5163L9.01641 0.376207C8.2808 -0.11277 7.32713 -0.126096 6.57815 0.342137L1.05729 3.79354C0.399551 4.20473 0 4.92572 0 5.7014V28.0284C0 29.8185 1.989 30.8917 3.48521 29.909L6.79348 27.7361C7.42684 27.3201 7.80826 26.6132 7.80826 25.8555V20.0255V11.0418C7.80826 10.3197 8.15487 9.64145 8.74011 9.21839Z" fill="#4570FF"/>
<path d="M10.5698 21.8385L11.9391 22.7374C12.6884 23.2293 13.6581 23.2296 14.4076 22.7381L20.9212 18.4674C21.5554 18.0516 21.9375 17.3442 21.9375 16.5858V10.1713C21.9375 9.41791 21.5605 8.71454 20.9331 8.29749L15.2447 4.5163V13.6079C15.2447 14.3382 14.89 15.0239 14.2934 15.4452L14.2927 15.4458L10.5066 18.1198C9.21078 19.035 9.24363 20.9679 10.5698 21.8385Z" fill="#FF6907"/>
</svg>
