<svg width="24" height="24" viewBox="0 0 24 24" fill="none" xmlns="http://www.w3.org/2000/svg">
<path d="M11.7539 23.5078C10.1289 23.5078 8.60547 23.2031 7.18359 22.5938C5.76172 21.9844 4.51172 21.1406 3.43359 20.0625C2.36328 18.9844 1.52344 17.7383 0.914062 16.3242C0.304688 14.9023 0 13.3789 0 11.7539C0 10.1289 0.304688 8.60938 0.914062 7.19531C1.52344 5.77344 2.36328 4.52344 3.43359 3.44531C4.51172 2.35937 5.76172 1.51562 7.18359 0.914062C8.60547 0.304688 10.1289 0 11.7539 0C13.3711 0 14.8906 0.304688 16.3125 0.914062C17.7344 1.51562 18.9805 2.35937 20.0508 3.44531C21.1289 4.52344 21.9727 5.77344 22.582 7.19531C23.1992 8.60938 23.5078 10.1289 23.5078 11.7539C23.5078 13.3789 23.1992 14.9023 22.582 16.3242C21.9727 17.7383 21.1289 18.9844 20.0508 20.0625C18.9805 21.1406 17.7344 21.9844 16.3125 22.5938C14.8906 23.2031 13.3711 23.5078 11.7539 23.5078ZM11.7539 21.9961C13.168 21.9961 14.4922 21.7305 15.7266 21.1992C16.9688 20.668 18.0586 19.9336 18.9961 18.9961C19.9336 18.0586 20.668 16.9727 21.1992 15.7383C21.7305 14.4961 21.9961 13.168 21.9961 11.7539C21.9961 10.3398 21.7305 9.01172 21.1992 7.76953C20.668 6.52734 19.9336 5.44141 18.9961 4.51172C18.0586 3.57422 16.9688 2.83984 15.7266 2.30859C14.4922 1.77734 13.168 1.51172 11.7539 1.51172C10.3398 1.51172 9.01172 1.77734 7.76953 2.30859C6.53516 2.83984 5.44922 3.57422 4.51172 4.51172C3.57422 5.44141 2.83984 6.52734 2.30859 7.76953C1.77734 9.01172 1.51172 10.3398 1.51172 11.7539C1.51172 13.168 1.77734 14.4961 2.30859 15.7383C2.83984 16.9727 3.57422 18.0586 4.51172 18.9961C5.44922 19.9336 6.53516 20.668 7.76953 21.1992C9.01172 21.7305 10.3398 21.9961 11.7539 21.9961ZM11.7422 17.5195C10.9609 17.5195 10.2695 17.375 9.66797 17.0859C9.06641 16.7969 8.59766 16.4688 8.26172 16.1016C7.93359 15.7344 7.76953 15.4297 7.76953 15.1875C7.76953 15.0703 7.8125 14.9922 7.89844 14.9531C7.99219 14.9141 8.08594 14.918 8.17969 14.9648C8.57812 15.2305 9.05859 15.4766 9.62109 15.7031C10.1914 15.9219 10.8984 16.0312 11.7422 16.0312C12.5859 16.0312 13.293 15.9219 13.8633 15.7031C14.4336 15.4766 14.9141 15.2305 15.3047 14.9648C15.3984 14.918 15.4883 14.9141 15.5742 14.9531C15.668 14.9922 15.7148 15.0703 15.7148 15.1875C15.7148 15.4297 15.5469 15.7344 15.2109 16.1016C14.8828 16.4688 14.418 16.7969 13.8164 17.0859C13.2227 17.375 12.5312 17.5195 11.7422 17.5195ZM8.23828 10.6641C7.90234 10.6641 7.60547 10.5195 7.34766 10.2305C7.08984 9.94141 6.96094 9.57812 6.96094 9.14062C6.96094 8.71094 7.08594 8.35156 7.33594 8.0625C7.59375 7.76562 7.89453 7.61719 8.23828 7.61719C8.58984 7.61719 8.89453 7.76562 9.15234 8.0625C9.41797 8.35156 9.55078 8.71094 9.55078 9.14062C9.55078 9.57812 9.41797 9.94141 9.15234 10.2305C8.89453 10.5195 8.58984 10.6641 8.23828 10.6641ZM15.2344 10.6641C14.8984 10.6641 14.6016 10.5195 14.3438 10.2305C14.0859 9.94141 13.957 9.57812 13.957 9.14062C13.957 8.71094 14.082 8.35156 14.332 8.0625C14.5898 7.76562 14.8906 7.61719 15.2344 7.61719C15.5859 7.61719 15.8906 7.76562 16.1484 8.0625C16.4062 8.35156 16.5352 8.71094 16.5352 9.14062C16.5352 9.57812 16.4062 9.94141 16.1484 10.2305C15.8906 10.5195 15.5859 10.6641 15.2344 10.6641Z" fill="#303030"/>
</svg>
