<svg width="24" height="24" viewBox="0 0 24 24" fill="none" xmlns="http://www.w3.org/2000/svg">
<path d="M16.4697 9.46973C16.7627 9.17673 17.2373 9.17673 17.5303 9.46973C17.8233 9.76272 17.8233 10.2383 17.5303 10.5312L14.7373 13.3242C14.0563 14.0062 12.9447 14.0072 12.2627 13.3252L10.6738 11.7402C10.5758 11.6422 10.4183 11.6423 10.3203 11.7402L7.5293 14.5312C7.3833 14.6772 7.19102 14.751 6.99902 14.751C6.80702 14.751 6.61475 14.6783 6.46875 14.5312C6.17576 14.2383 6.17576 13.7627 6.46875 13.4697L9.25977 10.6787C9.94177 9.99672 11.0524 9.99674 11.7344 10.6777L13.3232 12.2627C13.4212 12.3597 13.5788 12.3597 13.6768 12.2627L16.4697 9.46973Z" fill="#181818"/>
<path fill-rule="evenodd" clip-rule="evenodd" d="M12 1.25C17.928 1.25 22.75 6.072 22.75 12C22.75 17.928 17.928 22.75 12 22.75C6.072 22.75 1.25 17.928 1.25 12C1.25 6.072 6.072 1.25 12 1.25ZM12 2.75C6.899 2.75 2.75 6.899 2.75 12C2.75 17.101 6.899 21.25 12 21.25C17.101 21.25 21.25 17.101 21.25 12C21.25 6.899 17.101 2.75 12 2.75Z" fill="#181818"/>
</svg>
